# xmcd
# 
# Track frame offsets:
#     150
#     18762
#     39430
#     64735
#     97357
# 
# Disc length: 1537
# 
# Revision: 3
# Processed by: cddbd v1.5.2PL0 Copyright (c) Steve Scherf et al.
# Submitted via: fre:ac v1.0.17
# 
DISCID=3a05ff05
DTITLE=Blues Traveler - Canadian Rose (EP)
DYEAR=1997
DGENRE=Blues
TTITLE0=Canadian Rose (radio)
TTITLE1=Canadian Rose
TTITLE2=Carolina Blues [Live]
TTITLE3=Business As Usual [Live]
TTITLE4=Diner
EXTD=
EXTT0=
EXTT1=
EXTT2=
EXTT3=
EXTT4=
PLAYORDER=
